{
	"asset":{
		"generator":"Khronos glTF Blender I/O v4.1.63",
		"version":"2.0"
	},
	"scene":0,
	"scenes":[
		{
			"name":"Scene",
			"nodes":[
				0
			]
		}
	],
	"nodes":[
		{
			"mesh":0,
			"name":"Mesh_0"
		}
	],
	"materials":[
		{
			"doubleSided":true,
			"name":"Material_0",
			"pbrMetallicRoughness":{
				"baseColorTexture":{
					"index":0
				},
				"metallicFactor":0,
				"roughnessFactor":0.800000011920929
			}
		}
	],
	"meshes":[
		{
			"name":"Mesh_0",
			"primitives":[
				{
					"attributes":{
						"POSITION":0,
						"NORMAL":1,
						"TEXCOORD_0":2
					},
					"indices":3,
					"material":0
				}
			]
		}
	],
	"textures":[
		{
			"sampler":0,
			"source":0
		}
	],
	"images":[
		{
			"mimeType":"image/png",
			"name":"Image_0",
			"uri":"Image_0.png"
		}
	],
	"accessors":[
		{
			"bufferView":0,
			"componentType":5126,
			"count":33732,
			"max":[
				0.58741295337677,
				0.6000000238418579,
				0.41897737979888916
			],
			"min":[
				-0.58741295337677,
				-0.6000000238418579,
				-0.41897737979888916
			],
			"type":"VEC3"
		},
		{
			"bufferView":1,
			"componentType":5126,
			"count":33732,
			"type":"VEC3"
		},
		{
			"bufferView":2,
			"componentType":5126,
			"count":33732,
			"type":"VEC2"
		},
		{
			"bufferView":3,
			"componentType":5123,
			"count":189204,
			"type":"SCALAR"
		}
	],
	"bufferViews":[
		{
			"buffer":0,
			"byteLength":404784,
			"byteOffset":0,
			"target":34962
		},
		{
			"buffer":0,
			"byteLength":404784,
			"byteOffset":404784,
			"target":34962
		},
		{
			"buffer":0,
			"byteLength":269856,
			"byteOffset":809568,
			"target":34962
		},
		{
			"buffer":0,
			"byteLength":378408,
			"byteOffset":1079424,
			"target":34963
		}
	],
	"samplers":[
		{
			"magFilter":9729,
			"minFilter":9987
		}
	],
	"buffers":[
		{
			"byteLength":1457832,
			"uri":"eagle.bin"
		}
	]
}
