{
	"asset":{
		"generator":"Khronos glTF Blender I/O v4.1.63",
		"version":"2.0"
	},
	"scene":0,
	"scenes":[
		{
			"name":"Scene",
			"nodes":[
				0,
				1,
				2,
				3,
				4,
				5,
				6,
				7,
				8,
				9,
				10,
				11,
				12
			]
		}
	],
	"nodes":[
		{
			"mesh":0,
			"name":"Cube"
		},
		{
			"mesh":1,
			"name":"Cube.001",
			"rotation":[
				0.7071068286895752,
				0,
				0,
				0.7071068286895752
			]
		},
		{
			"mesh":2,
			"name":"Cube.002",
			"rotation":[
				0.7071068286895752,
				0,
				0,
				0.7071068286895752
			]
		},
		{
			"mesh":3,
			"name":"Cube.003",
			"rotation":[
				0.7071068286895752,
				0,
				0,
				0.7071068286895752
			]
		},
		{
			"mesh":4,
			"name":"Cube.004",
			"rotation":[
				0.7071068286895752,
				0,
				0,
				0.7071068286895752
			]
		},
		{
			"mesh":5,
			"name":"leaves",
			"rotation":[
				0.7071068286895752,
				0,
				0,
				0.7071068286895752
			]
		},
		{
			"name":"Mesh",
			"rotation":[
				0.7071068286895752,
				0,
				0,
				0.7071068286895752
			]
		},
		{
			"name":"Mesh.001",
			"rotation":[
				0.7071068286895752,
				0,
				0,
				0.7071068286895752
			]
		},
		{
			"name":"Mesh.002",
			"rotation":[
				0.7071068286895752,
				0,
				0,
				0.7071068286895752
			]
		},
		{
			"name":"Mesh.004",
			"rotation":[
				0.7071068286895752,
				0,
				0,
				0.7071068286895752
			]
		},
		{
			"mesh":6,
			"name":"Plane",
			"rotation":[
				0.7071068286895752,
				0,
				0,
				0.7071068286895752
			]
		},
		{
			"mesh":7,
			"name":"Plane.002",
			"rotation":[
				0.7071068286895752,
				0,
				0,
				0.7071068286895752
			]
		},
		{
			"mesh":8,
			"name":"tree",
			"rotation":[
				0.7071068286895752,
				0,
				0,
				0.7071068286895752
			]
		}
	],
	"materials":[
		{
			"doubleSided":true,
			"name":"Material",
			"pbrMetallicRoughness":{
				"baseColorFactor":[
					0.800000011920929,
					0.800000011920929,
					0.800000011920929,
					1
				],
				"metallicFactor":0,
				"roughnessFactor":0.5
			}
		},
		{
			"doubleSided":true,
			"name":"Material.001",
			"pbrMetallicRoughness":{
				"baseColorTexture":{
					"index":0
				},
				"metallicFactor":0,
				"roughnessFactor":0.5
			}
		},
		{
			"doubleSided":true,
			"name":"Material.003",
			"pbrMetallicRoughness":{
				"baseColorTexture":{
					"index":1
				},
				"metallicFactor":0,
				"roughnessFactor":0.5
			}
		},
		{
			"doubleSided":true,
			"name":"Material.005",
			"pbrMetallicRoughness":{
				"baseColorTexture":{
					"index":2
				},
				"metallicFactor":0,
				"roughnessFactor":0.5
			}
		},
		{
			"doubleSided":true,
			"name":"Material.004",
			"pbrMetallicRoughness":{
				"baseColorTexture":{
					"index":3
				},
				"metallicFactor":0,
				"roughnessFactor":0.5
			}
		}
	],
	"meshes":[
		{
			"name":"Cube",
			"primitives":[
				{
					"attributes":{
						"POSITION":0,
						"NORMAL":1,
						"TEXCOORD_0":2
					},
					"indices":3,
					"material":0
				}
			]
		},
		{
			"name":"Cube.001",
			"primitives":[
				{
					"attributes":{
						"POSITION":4,
						"NORMAL":5,
						"TEXCOORD_0":6
					},
					"indices":7,
					"material":1
				}
			]
		},
		{
			"name":"Cube.002",
			"primitives":[
				{
					"attributes":{
						"POSITION":8,
						"NORMAL":9,
						"TEXCOORD_0":10
					},
					"indices":11,
					"material":1
				}
			]
		},
		{
			"name":"Cube.003",
			"primitives":[
				{
					"attributes":{
						"POSITION":12,
						"NORMAL":13,
						"TEXCOORD_0":14
					},
					"indices":15,
					"material":1
				}
			]
		},
		{
			"name":"Cube.004",
			"primitives":[
				{
					"attributes":{
						"POSITION":16,
						"NORMAL":17,
						"TEXCOORD_0":18
					},
					"indices":19,
					"material":1
				}
			]
		},
		{
			"name":"leaves",
			"primitives":[
				{
					"attributes":{
						"POSITION":20,
						"NORMAL":21,
						"TEXCOORD_0":22
					},
					"indices":23,
					"material":2
				}
			]
		},
		{
			"name":"Plane",
			"primitives":[
				{
					"attributes":{
						"POSITION":24,
						"NORMAL":25,
						"TEXCOORD_0":26
					},
					"indices":27,
					"material":3
				}
			]
		},
		{
			"name":"Plane.002",
			"primitives":[
				{
					"attributes":{
						"POSITION":28,
						"NORMAL":29,
						"TEXCOORD_0":30
					},
					"indices":27,
					"material":3
				}
			]
		},
		{
			"name":"tree",
			"primitives":[
				{
					"attributes":{
						"POSITION":31,
						"NORMAL":32,
						"TEXCOORD_0":33
					},
					"indices":34,
					"material":4
				}
			]
		}
	],
	"textures":[
		{
			"sampler":0,
			"source":0
		},
		{
			"sampler":0,
			"source":1
		},
		{
			"sampler":0,
			"source":1
		},
		{
			"sampler":0,
			"source":2
		}
	],
	"images":[
		{
			"mimeType":"image/png",
			"name":"ludengsecai",
			"uri":"ludengsecai.png"
		},
		{
			"mimeType":"image/png",
			"name":"leave",
			"uri":"leave.png"
		},
		{
			"mimeType":"image/png",
			"name":"shupi",
			"uri":"shupi.png"
		}
	],
	"accessors":[
		{
			"bufferView":0,
			"componentType":5126,
			"count":24,
			"max":[
				1,
				1,
				1
			],
			"min":[
				-1,
				-1,
				-1
			],
			"type":"VEC3"
		},
		{
			"bufferView":1,
			"componentType":5126,
			"count":24,
			"type":"VEC3"
		},
		{
			"bufferView":2,
			"componentType":5126,
			"count":24,
			"type":"VEC2"
		},
		{
			"bufferView":3,
			"componentType":5123,
			"count":36,
			"type":"SCALAR"
		},
		{
			"bufferView":4,
			"componentType":5126,
			"count":32,
			"max":[
				0.04840800166130066,
				0.8450199961662292,
				-3.770764112472534
			],
			"min":[
				-0.04840800166130066,
				0.041836000978946686,
				-6.526222229003906
			],
			"type":"VEC3"
		},
		{
			"bufferView":5,
			"componentType":5126,
			"count":32,
			"type":"VEC3"
		},
		{
			"bufferView":6,
			"componentType":5126,
			"count":32,
			"type":"VEC2"
		},
		{
			"bufferView":7,
			"componentType":5123,
			"count":54,
			"type":"SCALAR"
		},
		{
			"bufferView":8,
			"componentType":5126,
			"count":20,
			"max":[
				0.048691000789403915,
				-0.44594699144363403,
				-3.783479928970337
			],
			"min":[
				-0.048691000789403915,
				-1.1576440334320068,
				-6.513505935668945
			],
			"type":"VEC3"
		},
		{
			"bufferView":9,
			"componentType":5126,
			"count":20,
			"type":"VEC3"
		},
		{
			"bufferView":10,
			"componentType":5126,
			"count":20,
			"type":"VEC2"
		},
		{
			"bufferView":11,
			"componentType":5123,
			"count":30,
			"type":"SCALAR"
		},
		{
			"bufferView":12,
			"componentType":5126,
			"count":186,
			"max":[
				0.14983700215816498,
				0.041836000978946686,
				0.06840900331735611
			],
			"min":[
				-0.14983700215816498,
				-0.44594699144363403,
				-10.68386173248291
			],
			"type":"VEC3"
		},
		{
			"bufferView":13,
			"componentType":5126,
			"count":186,
			"type":"VEC3"
		},
		{
			"bufferView":14,
			"componentType":5126,
			"count":186,
			"type":"VEC2"
		},
		{
			"bufferView":15,
			"componentType":5123,
			"count":306,
			"type":"SCALAR"
		},
		{
			"bufferView":16,
			"componentType":5126,
			"count":92,
			"max":[
				0.3623940050601959,
				-0.37755998969078064,
				-10.459819793701172
			],
			"min":[
				-0.3623940050601959,
				-2.929995059967041,
				-10.709218978881836
			],
			"type":"VEC3"
		},
		{
			"bufferView":17,
			"componentType":5126,
			"count":92,
			"type":"VEC3"
		},
		{
			"bufferView":18,
			"componentType":5126,
			"count":92,
			"type":"VEC2"
		},
		{
			"bufferView":19,
			"componentType":5123,
			"count":126,
			"type":"SCALAR"
		},
		{
			"bufferView":20,
			"componentType":5126,
			"count":19036,
			"max":[
				4.404078006744385,
				10.625547409057617,
				-1.228863000869751
			],
			"min":[
				-4.060760974884033,
				1.859341025352478,
				-9.365198135375977
			],
			"type":"VEC3"
		},
		{
			"bufferView":21,
			"componentType":5126,
			"count":19036,
			"type":"VEC3"
		},
		{
			"bufferView":22,
			"componentType":5126,
			"count":19036,
			"type":"VEC2"
		},
		{
			"bufferView":23,
			"componentType":5123,
			"count":28554,
			"type":"SCALAR"
		},
		{
			"bufferView":24,
			"componentType":5126,
			"count":289,
			"max":[
				5,
				11.638893127441406,
				-0.36989399790763855
			],
			"min":[
				-5,
				-1.3346229791641235,
				-0.36989399790763855
			],
			"type":"VEC3"
		},
		{
			"bufferView":25,
			"componentType":5126,
			"count":289,
			"type":"VEC3"
		},
		{
			"bufferView":26,
			"componentType":5126,
			"count":289,
			"type":"VEC2"
		},
		{
			"bufferView":27,
			"componentType":5123,
			"count":1536,
			"type":"SCALAR"
		},
		{
			"bufferView":28,
			"componentType":5126,
			"count":289,
			"max":[
				5,
				-9.323423385620117,
				-0.36989399790763855
			],
			"min":[
				-5,
				-10.733827590942383,
				-0.36989399790763855
			],
			"type":"VEC3"
		},
		{
			"bufferView":29,
			"componentType":5126,
			"count":289,
			"type":"VEC3"
		},
		{
			"bufferView":30,
			"componentType":5126,
			"count":289,
			"type":"VEC2"
		},
		{
			"bufferView":31,
			"componentType":5126,
			"count":19488,
			"max":[
				4.044850826263428,
				10.39189624786377,
				0
			],
			"min":[
				-3.7871360778808594,
				2.141361951828003,
				-8.981642723083496
			],
			"type":"VEC3"
		},
		{
			"bufferView":32,
			"componentType":5126,
			"count":19488,
			"type":"VEC3"
		},
		{
			"bufferView":33,
			"componentType":5126,
			"count":19488,
			"type":"VEC2"
		},
		{
			"bufferView":34,
			"componentType":5123,
			"count":93024,
			"type":"SCALAR"
		}
	],
	"bufferViews":[
		{
			"buffer":0,
			"byteLength":288,
			"byteOffset":0,
			"target":34962
		},
		{
			"buffer":0,
			"byteLength":288,
			"byteOffset":288,
			"target":34962
		},
		{
			"buffer":0,
			"byteLength":192,
			"byteOffset":576,
			"target":34962
		},
		{
			"buffer":0,
			"byteLength":72,
			"byteOffset":768,
			"target":34963
		},
		{
			"buffer":0,
			"byteLength":384,
			"byteOffset":840,
			"target":34962
		},
		{
			"buffer":0,
			"byteLength":384,
			"byteOffset":1224,
			"target":34962
		},
		{
			"buffer":0,
			"byteLength":256,
			"byteOffset":1608,
			"target":34962
		},
		{
			"buffer":0,
			"byteLength":108,
			"byteOffset":1864,
			"target":34963
		},
		{
			"buffer":0,
			"byteLength":240,
			"byteOffset":1972,
			"target":34962
		},
		{
			"buffer":0,
			"byteLength":240,
			"byteOffset":2212,
			"target":34962
		},
		{
			"buffer":0,
			"byteLength":160,
			"byteOffset":2452,
			"target":34962
		},
		{
			"buffer":0,
			"byteLength":60,
			"byteOffset":2612,
			"target":34963
		},
		{
			"buffer":0,
			"byteLength":2232,
			"byteOffset":2672,
			"target":34962
		},
		{
			"buffer":0,
			"byteLength":2232,
			"byteOffset":4904,
			"target":34962
		},
		{
			"buffer":0,
			"byteLength":1488,
			"byteOffset":7136,
			"target":34962
		},
		{
			"buffer":0,
			"byteLength":612,
			"byteOffset":8624,
			"target":34963
		},
		{
			"buffer":0,
			"byteLength":1104,
			"byteOffset":9236,
			"target":34962
		},
		{
			"buffer":0,
			"byteLength":1104,
			"byteOffset":10340,
			"target":34962
		},
		{
			"buffer":0,
			"byteLength":736,
			"byteOffset":11444,
			"target":34962
		},
		{
			"buffer":0,
			"byteLength":252,
			"byteOffset":12180,
			"target":34963
		},
		{
			"buffer":0,
			"byteLength":228432,
			"byteOffset":12432,
			"target":34962
		},
		{
			"buffer":0,
			"byteLength":228432,
			"byteOffset":240864,
			"target":34962
		},
		{
			"buffer":0,
			"byteLength":152288,
			"byteOffset":469296,
			"target":34962
		},
		{
			"buffer":0,
			"byteLength":57108,
			"byteOffset":621584,
			"target":34963
		},
		{
			"buffer":0,
			"byteLength":3468,
			"byteOffset":678692,
			"target":34962
		},
		{
			"buffer":0,
			"byteLength":3468,
			"byteOffset":682160,
			"target":34962
		},
		{
			"buffer":0,
			"byteLength":2312,
			"byteOffset":685628,
			"target":34962
		},
		{
			"buffer":0,
			"byteLength":3072,
			"byteOffset":687940,
			"target":34963
		},
		{
			"buffer":0,
			"byteLength":3468,
			"byteOffset":691012,
			"target":34962
		},
		{
			"buffer":0,
			"byteLength":3468,
			"byteOffset":694480,
			"target":34962
		},
		{
			"buffer":0,
			"byteLength":2312,
			"byteOffset":697948,
			"target":34962
		},
		{
			"buffer":0,
			"byteLength":233856,
			"byteOffset":700260,
			"target":34962
		},
		{
			"buffer":0,
			"byteLength":233856,
			"byteOffset":934116,
			"target":34962
		},
		{
			"buffer":0,
			"byteLength":155904,
			"byteOffset":1167972,
			"target":34962
		},
		{
			"buffer":0,
			"byteLength":186048,
			"byteOffset":1323876,
			"target":34963
		}
	],
	"samplers":[
		{
			"magFilter":9729,
			"minFilter":9987
		}
	],
	"buffers":[
		{
			"byteLength":1509924,
			"uri":"ludeng.bin"
		}
	]
}
