# Blender 4.0.2
# www.blender.org
mtllib ludeng5.mtl
o Cube.003
v -0.145541 -0.068409 0.349644
v -0.145541 -0.068409 0.058562
v 0.145541 -0.068409 0.349644
v 0.145541 -0.068409 0.058562
v -0.145541 3.783480 0.349644
v -0.145541 3.783480 0.058562
v 0.145541 3.783480 0.349644
v 0.145541 3.783480 0.058562
v -0.145541 6.513506 0.349644
v -0.145541 3.783480 0.349644
v -0.145541 6.513506 0.058562
v -0.145541 3.783480 0.058562
v 0.145541 6.513506 0.349644
v 0.145541 3.783480 0.349644
v 0.145541 3.783480 0.058562
v 0.145541 6.513506 0.058562
v 0.061501 6.421399 0.408001
v 0.061501 3.875588 0.408001
v -0.061501 3.875588 0.408001
v -0.061501 6.421399 0.408001
v 0.048691 6.513506 0.445947
v 0.048691 3.783480 0.445947
v -0.048691 3.783480 0.445947
v -0.048691 6.513506 0.445947
v -0.038230 6.317754 0.011315
v -0.038230 3.979233 0.011315
v 0.038230 3.979233 0.011315
v 0.038230 6.317754 0.011315
v -0.038230 6.526222 -0.041836
v -0.038230 3.770764 -0.041836
v 0.038230 3.770764 -0.041836
v 0.038230 6.526222 -0.041836
v -0.145541 10.683862 0.349644
v -0.145541 10.683862 0.058562
v 0.145541 10.683862 0.349644
v 0.145541 10.683862 0.058562
v -0.145541 10.365396 0.349644
v 0.145541 10.365396 0.058562
v -0.145541 10.365396 0.058562
v 0.145541 10.365396 0.349644
v 0.145541 10.449338 0.058562
v 0.145541 10.508781 0.058562
v -0.145541 10.508781 0.349644
v -0.145541 10.449338 0.349644
v -0.145541 10.508781 0.058562
v -0.145541 10.449338 0.058562
v 0.145541 10.508781 0.349644
v 0.145541 10.449338 0.349644
v 0.137876 10.460255 0.377560
v -0.137876 10.460255 0.377560
v -0.137876 10.516567 0.377560
v 0.137876 10.516567 0.377560
v 0.145541 10.636828 0.058562
v 0.149837 10.657496 0.054266
v -0.149837 10.657496 0.353940
v -0.145541 10.636828 0.349644
v -0.149837 10.657496 0.054266
v -0.145541 10.636828 0.058562
v 0.149837 10.657496 0.353940
v 0.145541 10.636828 0.349644
v -0.145541 6.513506 0.349644
v -0.145541 6.513506 0.058562
v 0.145541 6.513506 0.349644
v 0.145541 6.513506 0.058562
vn -0.0000 -1.0000 -0.0000
vn -0.0000 -0.0000 -1.0000
vn 1.0000 -0.0000 -0.0000
vn -1.0000 -0.0000 -0.0000
vn -0.0000 -0.0000 1.0000
vn -0.4029 -0.0000 -0.9152
vn -0.0000 0.5352 0.8447
vn -0.5704 -0.0000 0.8214
vn -0.0000 -0.5352 0.8447
vn 0.5704 -0.0000 0.8214
vn -0.0000 0.3809 -0.9246
vn -0.9475 -0.0000 0.3199
vn -0.0000 -0.3809 -0.9246
vn 0.9475 -0.0000 0.3199
vn -0.0000 0.2471 0.9690
vn -0.0000 -0.2346 -0.9721
vn -0.0000 0.2346 -0.9721
vn 0.4029 -0.0000 -0.9152
vn -0.0000 -0.2471 0.9690
vn -0.0000 1.0000 -0.0000
vn -0.0000 0.1608 -0.9870
vn 0.9870 0.1608 -0.0000
vn -0.9870 0.1608 -0.0000
vn -0.0000 0.1608 0.9870
vn -0.9643 -0.0000 0.2648
vn 0.9643 -0.0000 0.2648
vn -0.0000 0.9632 -0.2686
vn -0.0000 -0.9313 0.3642
vn -0.0000 -0.2035 0.9791
vn -0.9791 -0.2035 -0.0000
vn 0.9791 -0.2035 -0.0000
vn -0.0000 -0.2035 -0.9791
vt 0.253039 0.492380
vt 0.215067 0.492380
vt 0.215067 0.994867
vt 0.253039 0.994867
vt 0.313501 0.975414
vt 0.302405 0.380271
vt 0.313501 0.334301
vt 0.381858 0.334301
vt 0.381858 0.975414
vt 0.395562 0.953783
vt 0.395562 0.355931
vt 0.404473 0.975414
vt 0.404473 0.334301
vt 0.302405 0.929444
vt 0.289923 0.978400
vt 0.289923 0.331314
vt 0.151703 0.996713
vt 0.102848 0.773986
vt 0.151703 0.773986
vt 0.003557 0.000000
vt 0.053176 0.006270
vt 0.002836 0.006270
vt 0.102848 0.996713
vt 0.152370 1.000000
vt 0.102073 1.000000
vt 0.102073 0.770699
vt 0.152370 0.770699
vt 0.202752 0.226014
vt 0.204143 0.000000
vt 0.204143 0.229301
vt 0.053176 0.018879
vt 0.102073 0.885210
vt 0.053176 0.885210
vt 0.102794 0.056080
vt 0.151691 0.770699
vt 0.102794 0.770699
vt 0.153134 0.056080
vt 0.202031 0.770699
vt 0.153134 0.770699
vt 0.003557 0.071828
vt 0.052454 0.940596
vt 0.003557 0.940596
vt 0.053176 0.000000
vt 0.102073 0.018879
vt 0.102794 0.040506
vt 0.151691 0.056080
vt 0.102794 0.029478
vt 0.151691 0.040506
vt 0.153134 0.040506
vt 0.202031 0.056080
vt 0.153134 0.029478
vt 0.202031 0.040506
vt 0.003557 0.052895
vt 0.052454 0.071828
vt 0.003557 0.039488
vt 0.052454 0.052895
vt 0.157059 0.770699
vt 0.159475 0.792794
vt 0.157186 0.792138
vt 0.157059 0.783071
vt 0.152370 0.781727
vt 0.207454 0.229301
vt 0.202752 0.446163
vt 0.202752 0.235166
vt 0.152370 0.909661
vt 0.157059 0.904267
vt 0.205075 0.226014
vt 0.211397 0.003287
vt 0.211397 0.226014
vt 0.205075 0.003287
vt 0.102794 0.005722
vt 0.151691 0.029478
vt 0.102073 0.000000
vt 0.151691 0.005722
vt 0.153134 0.005722
vt 0.202031 0.029478
vt 0.152413 0.000000
vt 0.202031 0.005722
vt 0.003557 0.010608
vt 0.052454 0.039488
vt 0.052454 0.010608
vt 0.052454 0.000000
vt 0.202752 0.003287
vt 0.159475 0.771392
vt 0.157059 0.772624
vt 0.207454 0.452028
vt 0.202752 0.000000
s 0
usemtl Material
f 1/1/1 4/2/1 3/1/1
f 6/3/2 4/2/2 2/2/2
f 8/3/3 3/1/3 4/2/3
f 5/4/4 2/2/4 1/1/4
f 7/4/5 1/1/5 3/1/5
f 11/5/6 26/6/6 12/7/6
f 16/5/3 14/8/3 15/7/3
f 9/9/4 12/7/4 10/8/4
f 9/9/7 17/10/7 13/9/7
f 9/9/8 19/11/8 20/10/8
f 14/8/9 19/11/9 10/8/9
f 13/9/10 18/11/10 14/8/10
f 20/10/11 21/12/11 17/10/11
f 19/11/12 24/12/12 20/10/12
f 18/11/13 23/13/13 19/11/13
f 18/11/14 21/12/14 22/13/14
f 28/14/15 29/15/15 25/14/15
f 12/7/16 27/6/16 15/7/16
f 16/5/17 25/14/17 11/5/17
f 16/5/18 27/6/18 28/14/18
f 27/6/3 32/15/3 28/14/3
f 26/6/19 31/16/19 27/6/19
f 25/14/4 30/16/4 26/6/4
f 35/17/20 34/18/20 33/19/20
f 34/20/21 54/21/21 57/22/21
f 36/23/22 59/24/22 54/25/22
f 33/19/23 57/26/23 55/27/23
f 35/28/24 55/29/24 59/30/24
f 40/31/5 61/32/5 63/33/5
f 37/34/4 62/35/4 61/36/4
f 38/37/3 63/38/3 64/39/3
f 39/40/2 64/41/2 62/42/2
f 48/43/5 37/44/5 40/31/5
f 44/45/4 39/46/4 37/34/4
f 43/47/4 46/48/4 44/45/4
f 41/49/3 40/50/3 38/37/3
f 42/51/3 48/52/3 41/49/3
f 46/53/2 38/54/2 39/40/2
f 45/55/2 41/56/2 46/53/2
f 43/57/25 50/58/25 51/59/25
f 47/27/26 49/60/26 48/61/26
f 47/62/27 51/63/27 52/64/27
f 44/65/28 49/60/28 50/66/28
f 60/67/5 43/68/5 47/69/5
f 59/30/29 56/70/29 60/67/29
f 56/71/4 45/72/4 43/47/4
f 55/73/30 58/74/30 56/71/30
f 53/75/3 47/76/3 42/51/3
f 54/77/31 60/78/31 53/75/31
f 58/79/2 42/80/2 45/55/2
f 57/22/32 53/81/32 58/79/32
f 1/1/1 2/2/1 4/2/1
f 6/3/2 8/3/2 4/2/2
f 8/3/3 7/4/3 3/1/3
f 5/4/4 6/3/4 2/2/4
f 7/4/5 5/4/5 1/1/5
f 11/5/6 25/14/6 26/6/6
f 16/5/3 13/9/3 14/8/3
f 9/9/4 11/5/4 12/7/4
f 9/9/7 20/10/7 17/10/7
f 9/9/8 10/8/8 19/11/8
f 14/8/9 18/11/9 19/11/9
f 13/9/10 17/10/10 18/11/10
f 20/10/11 24/12/11 21/12/11
f 19/11/12 23/13/12 24/12/12
f 18/11/13 22/13/13 23/13/13
f 18/11/14 17/10/14 21/12/14
f 28/14/15 32/15/15 29/15/15
f 12/7/16 26/6/16 27/6/16
f 16/5/17 28/14/17 25/14/17
f 16/5/18 15/7/18 27/6/18
f 27/6/3 31/16/3 32/15/3
f 26/6/19 30/16/19 31/16/19
f 25/14/4 29/15/4 30/16/4
f 35/17/20 36/23/20 34/18/20
f 34/20/21 36/82/21 54/21/21
f 36/23/22 35/17/22 59/24/22
f 33/19/23 34/18/23 57/26/23
f 35/28/24 33/83/24 55/29/24
f 40/31/5 37/44/5 61/32/5
f 37/34/4 39/46/4 62/35/4
f 38/37/3 40/50/3 63/38/3
f 39/40/2 38/54/2 64/41/2
f 48/43/5 44/73/5 37/44/5
f 44/45/4 46/48/4 39/46/4
f 43/47/4 45/72/4 46/48/4
f 41/49/3 48/52/3 40/50/3
f 42/51/3 47/76/3 48/52/3
f 46/53/2 41/56/2 38/54/2
f 45/55/2 42/80/2 41/56/2
f 43/57/25 44/84/25 50/58/25
f 47/27/26 52/85/26 49/60/26
f 47/62/27 43/86/27 51/63/27
f 44/65/28 48/61/28 49/60/28
f 60/67/5 56/70/5 43/68/5
f 59/30/29 55/29/29 56/70/29
f 56/71/4 58/74/4 45/72/4
f 55/73/30 57/77/30 58/74/30
f 53/75/3 60/78/3 47/76/3
f 54/77/31 59/87/31 60/78/31
f 58/79/2 53/81/2 42/80/2
f 57/22/32 54/21/32 53/81/32
o Cube.001
v -0.038230 6.526222 -0.041836
v -0.038230 3.770764 -0.041836
v 0.038230 3.770764 -0.041836
v 0.038230 6.526222 -0.041836
v -0.038230 6.526222 -0.089082
v -0.038230 3.770764 -0.089082
v 0.038230 3.770764 -0.089082
v 0.038230 6.526222 -0.089082
v -0.048408 6.526222 -0.845020
v -0.048408 3.770764 -0.845020
v 0.048408 3.770764 -0.845020
v 0.048408 6.526222 -0.845020
vn -0.0000 -1.0000 -0.0000
vn -1.0000 -0.0000 -0.0000
vn -0.0000 1.0000 -0.0000
vn 1.0000 -0.0000 -0.0000
vn -0.0000 -0.0000 -1.0000
vn -0.9999 -0.0000 0.0135
vn 0.9999 -0.0000 0.0135
vt 0.714907 0.018166
vt 0.704198 0.018166
vt 0.532851 0.018166
vt 0.714907 0.642742
vt 0.704198 0.642742
vt 0.532851 0.642742
vt 1.000722 0.018166
vt 0.829375 0.642742
vt 1.000722 0.642742
vt 0.829375 0.018166
s 0
usemtl Material
f 66/88/33 71/89/33 67/88/33
f 70/89/33 75/90/33 71/89/33
f 65/91/34 70/89/34 66/88/34
f 68/91/35 69/92/35 65/91/35
f 67/88/36 72/92/36 68/91/36
f 73/93/37 75/90/37 74/90/37
f 69/92/38 74/90/38 70/89/38
f 72/92/35 73/93/35 69/92/35
f 71/94/39 76/95/39 72/96/39
f 66/88/33 70/89/33 71/89/33
f 70/89/33 74/90/33 75/90/33
f 65/91/34 69/92/34 70/89/34
f 68/91/35 72/92/35 69/92/35
f 67/88/36 71/89/36 72/92/36
f 73/93/37 76/93/37 75/90/37
f 69/92/38 73/93/38 74/90/38
f 72/92/35 76/93/35 73/93/35
f 71/94/39 75/97/39 76/95/39
o Cube.002
v -0.048691 6.513506 1.157644
v -0.048691 3.783480 1.157644
v 0.048691 6.513506 1.157644
v 0.048691 3.783480 1.157644
v 0.048691 6.513506 0.445947
v 0.048691 3.783480 0.445947
v -0.048691 3.783480 0.445947
v -0.048691 6.513506 0.445947
vn 1.0000 -0.0000 -0.0000
vn -0.0000 -0.0000 1.0000
vn -0.0000 -1.0000 -0.0000
vn -1.0000 -0.0000 -0.0000
vn -0.0000 1.0000 -0.0000
vt 0.838197 0.633621
vt 0.998163 0.019998
vt 0.838197 0.019998
vt 0.998163 0.633621
vt 0.539211 0.019998
vt 0.699178 0.633621
vt 0.539211 0.633621
vt 0.699178 0.019998
s 0
usemtl Material
f 81/98/40 80/99/40 82/100/40
f 79/101/41 78/99/41 80/99/41
f 82/100/42 78/99/42 83/100/42
f 83/102/43 77/103/43 84/104/43
f 84/98/44 79/101/44 81/98/44
f 81/98/40 79/101/40 80/99/40
f 79/101/41 77/101/41 78/99/41
f 82/100/42 80/99/42 78/99/42
f 83/102/43 78/105/43 77/103/43
f 84/98/44 77/101/44 79/101/44
o Cube.004
v -0.145541 10.557270 1.511656
v -0.145541 10.497826 1.511656
v 0.145541 10.557270 1.511656
v 0.145541 10.497826 1.511656
v -0.340466 10.709219 2.184940
v -0.340466 10.570162 2.184940
v 0.340466 10.709219 2.184940
v 0.340466 10.570162 2.184940
v -0.362394 10.689871 2.929995
v -0.362394 10.589510 2.929995
v 0.362394 10.689871 2.929995
v 0.362394 10.589510 2.929995
v 0.137876 10.460255 0.377560
v 0.145541 10.459820 0.404670
v -0.145541 10.459820 0.404670
v -0.137876 10.460255 0.377560
v -0.137876 10.516567 0.377560
v -0.145541 10.519263 0.404670
v 0.145541 10.519263 0.404670
v 0.137876 10.516567 0.377560
v 0.238353 10.631429 2.296669
v -0.238353 10.631429 2.296669
v 0.253704 10.644974 2.818265
v -0.253704 10.644974 2.818265
v 0.137876 10.460255 0.377560
v -0.137876 10.460255 0.377560
v -0.137876 10.516567 0.377560
v 0.137876 10.516567 0.377560
vn -0.0000 -0.9994 0.0343
vn -0.0000 0.9755 -0.2201
vn -0.0000 0.9994 -0.0343
vn 1.0000 -0.0000 -0.0000
vn -1.0000 -0.0000 -0.0000
vn -0.4841 -0.8742 0.0370
vn 0.9606 -0.0000 -0.2781
vn -0.0000 -0.9943 0.1068
vn -0.9606 -0.0000 -0.2781
vn -0.0000 -0.0000 1.0000
vn -0.9996 -0.0000 -0.0294
vn -0.0000 0.9997 0.0260
vn 0.9996 -0.0000 -0.0294
vn -0.9623 -0.0000 -0.2721
vn 0.9623 -0.0000 -0.2721
vn -0.0000 0.9951 -0.0990
vn -0.0000 -0.9999 -0.0160
vn -0.0000 -0.9997 0.0260
vn -0.0000 -0.8957 -0.4446
vn -0.0000 -0.8768 0.4808
vn 0.4841 -0.8742 0.0370
vt 0.391811 0.596314
vt 0.360586 0.477495
vt 0.391811 0.477495
vt 0.282836 0.477899
vt 0.334971 0.404579
vt 0.314061 0.477899
vt 0.314061 0.596582
vt 0.423167 0.597100
vt 0.432953 0.480012
vt 0.429530 0.597506
vt 0.442739 0.597100
vt 0.432953 0.480012
vt 0.439317 0.479605
vt 0.339676 0.405044
vt 0.348983 0.336868
vt 0.350630 0.392837
vt 0.426589 0.479605
vt 0.429960 0.405163
vt 0.412721 0.405044
vt 0.435946 0.405163
vt 0.450832 0.404212
vt 0.450832 0.402846
vt 0.461598 0.325096
vt 0.461598 0.402846
vt 0.443697 0.325096
vt 0.261926 0.404579
vt 0.337324 0.325096
vt 0.415074 0.404212
vt 0.432953 0.325783
vt 0.442642 0.600109
vt 0.436376 0.597506
vt 0.423264 0.600109
vt 0.429293 0.600494
vt 0.313239 0.599504
vt 0.282836 0.596582
vt 0.390989 0.599219
vt 0.360586 0.596314
vt 0.609948 0.988385
vt 0.905578 0.674914
vt 0.896355 0.988385
vt 0.415074 0.325096
vt 0.401767 0.392837
vt 0.403414 0.336868
vt 0.450832 0.325096
vt 0.432953 0.325783
vt 0.259574 0.325096
vt 0.422209 0.325096
vt 0.436613 0.600494
vt 0.283658 0.599504
vt 0.361408 0.599219
vt 0.600725 0.674914
s 0
usemtl Material
f 99/106/45 88/107/45 86/108/45
f 85/109/46 91/110/46 87/111/46
f 103/112/47 85/109/47 87/111/47
f 103/113/48 88/114/48 98/115/48
f 102/116/49 86/117/49 85/118/49
f 92/119/50 107/120/50 105/121/50
f 87/122/51 92/123/51 88/114/51
f 88/107/52 90/124/52 86/108/52
f 85/118/53 90/125/53 89/126/53
f 95/127/54 94/128/54 96/129/54
f 90/125/55 93/130/55 89/126/55
f 89/131/56 95/132/56 91/110/56
f 91/133/57 96/134/57 92/123/57
f 101/135/58 99/136/58 102/116/58
f 104/137/59 98/115/59 97/138/59
f 104/139/60 102/140/60 103/112/60
f 100/141/61 98/142/61 99/106/61
f 105/143/62 108/144/62 106/145/62
f 94/146/63 107/120/63 96/132/63
f 92/119/64 106/147/64 90/124/64
f 90/124/65 108/148/65 94/146/65
f 99/106/45 98/142/45 88/107/45
f 85/109/46 89/131/46 91/110/46
f 103/112/47 102/140/47 85/109/47
f 103/113/48 87/122/48 88/114/48
f 102/116/49 99/136/49 86/117/49
f 92/119/50 96/132/50 107/120/50
f 87/122/51 91/133/51 92/123/51
f 88/107/52 92/119/52 90/124/52
f 85/118/53 86/117/53 90/125/53
f 95/127/54 93/149/54 94/128/54
f 90/125/55 94/150/55 93/130/55
f 89/131/56 93/151/56 95/132/56
f 91/133/57 95/152/57 96/134/57
f 101/135/58 100/153/58 99/136/58
f 104/137/59 103/113/59 98/115/59
f 104/139/60 101/154/60 102/140/60
f 100/141/61 97/155/61 98/142/61
f 105/143/62 107/156/62 108/144/62
f 94/146/63 108/148/63 107/120/63
f 92/119/64 105/121/64 106/147/64
f 90/124/65 106/147/65 108/148/65
l 110 111
l 112 109
l 111 112
l 109 110
